<?xml version="1.0" encoding="utf-8"?>
<!-- Generator: Adobe Illustrator 22.0.0, SVG Export Plug-In . SVG Version: 6.00 Build 0)  -->
<svg version="1.1" id="Calque_1" xmlns="http://www.w3.org/2000/svg" xmlns:xlink="http://www.w3.org/1999/xlink" x="0px" y="0px"
	 viewBox="0 0 521.3 226.9" style="enable-background:new 0 0 521.3 226.9;" xml:space="preserve">
<g>
	<g>
		<path d="M14.6,177.3l-3.4,8.5c-1,2.4-1.5,3.9-1.5,4.5c0,1.5,1.3,2.3,3.8,2.6l0.6,0.1v2.3H0v-2.3h0.6c1.5,0,2.7-0.5,3.6-1.5
			c1-1,2-3,3.2-5.8l20.2-49.1h2.3l20.9,49.1c1.3,3,2.3,5,3.1,6c0.8,1,1.7,1.4,2.8,1.4h0.5v2.3H40.3v-2.3h0.6c1.5,0,2.5-0.1,3-0.4
			c0.5-0.3,0.8-0.9,0.8-1.7c0-0.7-0.6-2.5-1.8-5.2l-3.5-8.2H14.6L14.6,177.3z M15.6,174.5h22.4l-11.4-27L15.6,174.5L15.6,174.5z
			 M78.7,166.4v19.4c0,2.5,1,4.2,3.1,5.2c2.1,1,5.7,1.5,11,1.5h1.5c2.3,0,4-0.6,5.1-1.7c1.1-1.2,1.9-3.2,2.3-6.1l0.1-0.7h2.8
			l-1.2,12.4c-4.7-0.3-8.1-0.5-10.4-0.5c-2.4,0-5.3-0.1-8.5-0.3c-3.2-0.2-5.1-0.3-5.8-0.3H64.5v-2.3h0.7c2.4,0,4.1-0.5,4.9-1.5
			c0.8-1,1.2-3,1.2-5.9v-37.7c0-3.1-0.4-5.1-1.2-6c-0.8-0.9-2.4-1.4-5-1.4h-0.7v-2.3h37.6l1.2,10.5h-2.8l-0.1-0.8
			c-0.5-3.2-1.4-5.2-2.8-5.9c-1.4-0.7-5-1.1-10.9-1.1h-7.9v23.2h8.6c3.9,0,6.4-0.3,7.5-1c1.1-0.7,1.6-2.2,1.6-4.6v-0.6h2.8v14.8
			h-2.8v-0.6c0-2.2-0.5-3.7-1.4-4.6c-0.7-0.7-3.3-1.1-7.8-1.1H78.7L78.7,166.4z M129.7,168.2v17.3c0,3,0.4,5,1.2,6
			c0.8,1,2.5,1.4,5.1,1.4h0.3v2.3h-20.8v-2.3h0.5c2.6,0,4.3-0.5,5.1-1.4c0.8-0.9,1.2-2.9,1.2-6v-37.7c0-3-0.4-5-1.2-6
			c-0.8-0.9-2.5-1.4-5.1-1.4h-0.5v-2.3h21.4c6.8,0,11.5,0.9,14.3,2.6c2.8,1.7,4.2,4.8,4.2,9c0,4-1.1,7.4-3.3,10.2
			c-2.2,2.8-5.6,5-10.1,6.6c1.6,1,2.9,2,3.8,3.2c0.9,1.1,2.7,3.7,5.2,7.6l3.8,6.2c2.5,4,4.3,6.6,5.4,7.8c1.1,1.2,2.3,1.8,3.6,1.8
			h0.4v2.3h-11.1l-16.3-27.1H129.7L129.7,168.2z M129.7,165.9h8.1c3.1-1,5.5-2.7,7.2-5.3c1.7-2.6,2.6-5.7,2.6-9.3
			c0-3.8-1.2-6.5-3.5-8.3c-2.4-1.7-6.1-2.6-11.3-2.6h-3.1V165.9L129.7,165.9z M196.7,197c-8,0-14.5-2.8-19.6-8.5
			c-5.1-5.7-7.6-12.9-7.6-21.8c0-8.9,2.5-16.1,7.6-21.8c5.1-5.7,11.6-8.5,19.6-8.5c7.2,0,13.1,2.2,17.7,6.5c2.9,2.7,5.2,6.3,7,10.5
			c1.7,4.3,2.6,8.7,2.6,13.3c0,8.9-2.5,16.1-7.6,21.8C211.2,194.2,204.7,197,196.7,197L196.7,197z M196.7,194.7
			c5.4,0,9.8-2.6,13.3-7.8c3.5-5.2,5.2-11.9,5.2-20.1c0-8.1-1.7-14.8-5.2-20.1c-3.5-5.2-7.9-7.9-13.3-7.9c-5.4,0-9.8,2.6-13.3,7.9
			c-3.5,5.3-5.2,11.9-5.2,20.1c0,8.2,1.7,14.9,5.2,20.1C186.8,192.1,191.3,194.7,196.7,194.7L196.7,194.7z M264.9,150.4L250.6,197
			h-2.5l-14.5-49c-0.8-2.8-1.7-4.7-2.6-5.9c-0.9-1.1-2-1.7-3.3-1.7h-0.6v-2.3h18.2v2.3h-0.7c-1.8,0-2.9,0.2-3.5,0.7
			c-0.6,0.5-0.9,1.4-0.9,2.7c0,1.3,0.2,2.8,0.7,4.4l10.6,35.8l14.1-46h2.2l16.4,46.1l10.5-36c0.6-2.1,0.9-3.7,0.9-5
			c0-1.6-1.5-2.6-4.4-2.8l-0.7,0v-2.3h13.9v2.3h-0.6c-1.2,0-2.3,0.6-3.1,1.7c-0.8,1.1-1.6,3.1-2.5,6L284.1,197h-2.4L264.9,150.4
			L264.9,150.4z M314.8,177.3l-3.4,8.5c-1,2.4-1.5,3.9-1.5,4.5c0,1.5,1.3,2.3,3.8,2.6l0.6,0.1v2.3h-14v-2.3h0.6
			c1.5,0,2.7-0.5,3.6-1.5c1-1,2-3,3.2-5.8l20.2-49.1h2.3l20.9,49.1c1.3,3,2.3,5,3.1,6c0.8,1,1.7,1.4,2.8,1.4h0.5v2.3h-16.9v-2.3h0.6
			c1.5,0,2.5-0.1,3-0.4c0.5-0.3,0.8-0.9,0.8-1.7c0-0.7-0.6-2.5-1.8-5.2l-3.5-8.2H314.8L314.8,177.3z M315.8,174.5h22.4l-11.4-27
			L315.8,174.5L315.8,174.5z M377.1,140.9h-5.8c-4.4,0-7.4,0.6-9.1,1.8c-1.7,1.2-2.8,3.5-3.3,6.9l-0.1,0.7h-3l1.4-13.3
			c6.4,0.7,13,1,19.9,1h7.7c6.9,0,13.5-0.3,19.9-1l1.4,13.3h-2.9l-0.1-0.7c-0.5-3.4-1.6-5.8-3.3-6.9c-1.7-1.2-4.7-1.8-9.1-1.8h-5.8
			v44.6c0,3.1,0.5,5.1,1.4,6c0.9,0.9,2.9,1.4,6,1.4h0.5v2.3h-23.5v-2.3h0.5c3.1,0,5.1-0.5,6-1.4c0.9-0.9,1.4-2.9,1.4-6V140.9
			L377.1,140.9z M455.2,194.2c-6,1.9-11.6,2.8-16.8,2.8c-8.6,0-15.3-2.7-20.4-8.2c-5-5.5-7.5-12.9-7.5-22.2c0-9.1,2.5-16.4,7.5-21.9
			c5-5.5,11.6-8.3,19.8-8.3c6.1,0,11.7,0.8,16.9,2.3l1.2,11.4H453l-0.1-0.7c-0.6-3.4-2.2-6-4.7-7.9c-2.6-1.9-5.9-2.8-10-2.8
			c-5.6,0-10.3,2.6-13.9,7.8c-3.6,5.2-5.5,11.9-5.5,20c0,8.4,1.9,15.2,5.6,20.4c3.7,5.2,8.6,7.8,14.7,7.8c8.2,0,12.9-3.7,14.3-11
			l0.1-0.6h2.8L455.2,194.2L455.2,194.2z M481,166.7v18.9c0,3,0.4,5,1.2,6c0.8,1,2.5,1.4,5,1.4h0.5v2.3h-21v-2.3h0.6
			c2.6,0,4.2-0.5,5-1.4c0.8-0.9,1.2-2.9,1.2-6v-37.7c0-3-0.4-5-1.2-6c-0.8-0.9-2.5-1.4-5-1.4h-0.6v-2.3h21v2.3h-0.5
			c-2.6,0-4.2,0.5-5,1.4c-0.8,0.9-1.2,2.9-1.2,6v16h26.2v-16c0-3-0.4-5-1.2-6c-0.8-0.9-2.5-1.4-5-1.4h-0.5v-2.3h21v2.3h-0.6
			c-2.6,0-4.2,0.5-5,1.4c-0.8,0.9-1.2,2.9-1.2,6v37.7c0,3.1,0.4,5.1,1.2,6c0.8,0.9,2.5,1.4,5,1.4h0.6v2.3h-21v-2.3h0.5
			c2.6,0,4.2-0.5,5-1.4c0.8-1,1.2-2.9,1.2-6v-18.9H481L481,166.7z M338.6,26c1.3-1.9,6.1-7.5,8.9-10.9l-0.5,0.4
			c-4.3,4.4-6.6,7.4-9.1,9.7c-2.7,1.9-7.7,5.1-9.1,5.6c-0.9,3.9-3.5,8.2-4.5,9.8c-24.3,27.4-55.2,60-91.2,67.5l0-0.3
			c44.2-20.9,71.4-95,94.6-106.1L326.9,0c-3.8,1.3-7.4,2.9-10.9,4.6c-8,3.7-32.8,15.7-81.8,61c0,0.1-14.7-33.4-39.7-48.1
			c17.2,10.7,34.7,36,38.8,60.8c-14.1,13.2-28.6,23.6-45.2,26.9c0,0-3.9,0.9-8,1.1c0.3,1,0.9,2.4,0.9,2.4
			c19.9-1.8,36.6-13,52.6-27.8c0.5,4.2,0.7,8.3,0.4,12.4l3.8,1.6c0,0,0.9-7-0.7-17.3c25-23.9,49-55.6,82.1-72.8l0.3,0.3
			c-39.9,30.8-65.7,92.8-94.3,104.4l0.5,2c38.2-3.2,73.5-39.1,99.6-69.7c1.2-1.1,5.4-4.7,9-6.1C335,34,337.3,28,338.6,26L338.6,26z"
			/>
	</g>
</g>
<g>
	<path d="M77.1,220.6h0.6c0.9,2.6,2.8,5,5.8,5c2.3,0,3.8-2,3.2-4.2c-1.2-3.9-8.8-4.1-8.8-9.5c0-2.8,2.2-4.7,5-4.7c3,0,4.3,2.1,5,0
		h0.6l0.6,6h-0.7c-0.6-2.6-2.5-4.8-5.1-4.8c-1.7,0-3,0.9-3,2.7c0,1.6,1.8,2.8,3,3.5c3.8,2.3,6.4,3.5,6.4,6.9c0,2.5-2.1,5.1-5.9,5.1
		c-2.9,0-4.9-2.1-5.2,0H78L77.1,220.6z"/>
	<path d="M95.9,214.5c-0.5-1.4-1.4-4-2.2-5.2c-0.4-0.7-1-1-1.9-1.1v-0.5h6.9v0.5l-0.4,0c-0.9,0.1-1.4,0.1-1.4,1.1
		c0,0.3,0.3,1.1,0.4,1.3l3.9,10.3l3-7.9c-0.4-1.2-0.9-2.4-1.4-3.5c-0.5-1-1.2-1.3-2.3-1.3v-0.5h7.5v0.5c-0.8,0-2.2,0-2.2,0.9
		c0,0.4,0.2,1,0.3,1.2l4.2,10.8l3.4-9.2c0.5-1.3,0.6-2.6,0.4-3c-0.4-0.6-1.2-0.6-1.8-0.6v-0.5h5.6v0.5c-0.7,0.1-1.3,0.3-1.7,0.8
		c-0.3,0.4-0.4,0.8-0.6,1.2l-5.8,16.4h-0.4l-4.5-12l-4.4,12h-0.4L95.9,214.5z"/>
	<path d="M124.2,224c0,0.8,0.4,1.7,2.8,1.7v0.5h-8.4v-0.5c2.3,0,2.8-0.9,2.8-1.7v-14.1c0-0.8-0.4-1.7-2.8-1.7v-0.5h8.4v0.5
		c-2.3,0-2.8,0.9-2.8,1.7V224z"/>
	<path d="M128.7,220.6h0.6c0.9,2.6,2.8,5,5.8,5c2.3,0,3.8-2,3.2-4.2c-1.2-3.9-8.8-4.1-8.8-9.5c0-2.8,2.2-4.7,5-4.7c3,0,4.3,2.1,5,0
		h0.6l0.6,6H140c-0.6-2.6-2.5-4.8-5.1-4.8c-1.7,0-3,0.9-3,2.7c0,1.6,1.8,2.8,3,3.5c3.8,2.3,6.4,3.5,6.4,6.9c0,2.5-2.1,5.1-5.9,5.1
		c-2.9,0-4.9-2.1-5.2,0h-0.6L128.7,220.6z"/>
	<path d="M144.3,220.6h0.6c0.9,2.6,2.8,5,5.8,5c2.3,0,3.8-2,3.2-4.2c-1.2-3.9-8.8-4.1-8.8-9.5c0-2.8,2.2-4.7,5-4.7c3,0,4.3,2.1,5,0
		h0.6l0.6,6h-0.7c-0.6-2.6-2.5-4.8-5.1-4.8c-1.7,0-3,0.9-3,2.7c0,1.6,1.8,2.8,3,3.5c3.8,2.3,6.4,3.5,6.4,6.9c0,2.5-2.1,5.1-5.9,5.1
		c-2.9,0-4.9-2.1-5.2,0h-0.6L144.3,220.6z"/>
	<path d="M169.5,214.5c-0.5-1.4-1.4-4-2.2-5.2c-0.4-0.7-1-1-1.9-1.1v-0.5h6.9v0.5l-0.4,0c-0.9,0.1-1.4,0.1-1.4,1.1
		c0,0.3,0.3,1.1,0.4,1.3l3.9,10.3l3-7.9c-0.4-1.2-0.9-2.4-1.4-3.5c-0.5-1-1.2-1.3-2.3-1.3v-0.5h7.5v0.5c-0.8,0-2.2,0-2.2,0.9
		c0,0.4,0.2,1,0.3,1.2L184,221l3.4-9.2c0.5-1.3,0.6-2.6,0.4-3c-0.4-0.6-1.2-0.6-1.8-0.6v-0.5h5.6v0.5c-0.7,0.1-1.3,0.3-1.7,0.8
		c-0.3,0.4-0.4,0.8-0.6,1.2l-5.8,16.4h-0.4l-4.5-12l-4.4,12h-0.4L169.5,214.5z"/>
	<path d="M205.8,223c0.5,1.2,1.1,2.8,2.7,2.8v0.5h-7.2v-0.5c2.4-0.1,2.4-0.6,1.3-3.1l-1-2.4h-7.4c-0.4,1.1-1.5,3.3-1.5,4.4
		c0,0.9,1,1.2,1.9,1.2v0.5h-5.6v-0.5c1.7-0.1,2.5-2.2,3.6-4.9l5.7-13.5h0.6L205.8,223z M194.7,219h6.5l-3.3-7.7L194.7,219z"/>
	<path d="M218.3,226.3h-7.8v-0.5c2.1,0,2.5-0.9,2.5-1.7v-15.2h-2c-2.1,0-3.4,0-4,3.6h-0.7l0.2-4.8h15.9l0.2,4.8h-0.7
		c-0.6-3.6-1.9-3.6-4-3.6h-2V224c0,0.8,0.4,1.7,2.5,1.7V226.3z"/>
	<path d="M240.6,213.6h-0.7c-0.8-3.1-2.9-5.2-6.1-5.2c-4.6,0-6.6,3.7-6.6,8.8c0,3.9,2.1,8.2,6.7,8.2c2.8,0,4.6-0.9,6.6-2.8l0.5,0.6
		c-1.7,2.1-4.6,3.5-7.3,3.5c-5.5,0-9.7-3.5-9.7-9.7c0-5.6,4-9.7,9.6-9.7c3.9,0,5.3,2.3,6.2,0h0.6L240.6,213.6z"/>
	<path d="M256.2,216.2v-6.3c0-0.8-0.4-1.7-2.5-1.7v-0.5h7.8v0.5c-2.1,0-2.5,0.9-2.5,1.7V224c0,0.8,0.4,1.7,2.5,1.7v0.5h-7.8v-0.5
		c2.1,0,2.5-0.9,2.5-1.7v-6.7h-8.5v6.7c0,0.8,0.4,1.7,2.5,1.7v0.5h-7.8v-0.5c2.1,0,2.5-0.9,2.5-1.7v-14.1c0-0.8-0.4-1.7-2.5-1.7
		v-0.5h7.8v0.5c-2.1,0-2.5,0.9-2.5,1.7v6.3H256.2z"/>
	<path d="M262.4,226.3v-0.5c2.1,0,2.5-0.9,2.5-1.7v-14.1c0-0.8-0.4-1.7-2.5-1.7v-0.5h14.9v4h-0.6c-0.3-1.5-1.2-2.9-3.2-2.9h-4.5
		c-0.7,0-1.2,0.4-1.2,1.1v6h4c1.9,0,3.5-0.5,3.5-2.7h0.6v6.6h-0.6c0-2.2-1.6-2.7-3.5-2.7h-4v6.9c0,0.5,0.2,1.1,0.7,1.1h3.7
		c2.2,0,4.4,0,5.9-3.6h0.8l-1.3,4.8H262.4z"/>
	<path d="M280.4,220.6h0.6c0.9,2.6,2.8,5,5.8,5c2.3,0,3.8-2,3.2-4.2c-1.2-3.9-8.8-4.1-8.8-9.5c0-2.8,2.2-4.7,5-4.7c3,0,4.3,2.1,5,0
		h0.6l0.6,6h-0.7c-0.6-2.6-2.5-4.8-5.1-4.8c-1.7,0-3,0.9-3,2.7c0,1.6,1.8,2.8,3,3.5c3.8,2.3,6.4,3.5,6.4,6.9c0,2.5-2.1,5.1-5.9,5.1
		c-2.9,0-4.9-2.1-5.2,0h-0.6L280.4,220.6z"/>
	<path d="M303,220.6h0.6c0.9,2.6,2.8,5,5.8,5c2.3,0,3.8-2,3.2-4.2c-1.2-3.9-8.8-4.1-8.8-9.5c0-2.8,2.2-4.7,5-4.7c3,0,4.3,2.1,5,0
		h0.6l0.6,6h-0.7c-0.6-2.6-2.5-4.8-5.1-4.8c-1.7,0-3,0.9-3,2.7c0,1.6,1.8,2.8,3,3.5c3.8,2.3,6.4,3.5,6.4,6.9c0,2.5-2.1,5.1-5.9,5.1
		c-2.9,0-4.9-2.1-5.2,0h-0.6L303,220.6z"/>
	<path d="M323.6,224c0,0.8,0.4,1.7,2.8,1.7v0.5H318v-0.5c2.3,0,2.8-0.9,2.8-1.7v-14.1c0-0.8-0.4-1.7-2.8-1.7v-0.5h8.4v0.5
		c-2.3,0-2.8,0.9-2.8,1.7V224z"/>
	<path d="M344,226.7h-0.4l-12.5-15.5V224c0,0.8,0.4,1.7,2.7,1.7v0.5h-6.7v-0.5c2.3,0,2.7-0.9,2.7-1.7v-14.3l-0.2-0.3
		c-0.9-1-1.1-1.2-2.5-1.3v-0.5h4.8l10.8,13.5v-11.3c0-0.8-0.4-1.7-2.7-1.7v-0.5h6.7v0.5c-2.3,0-2.7,0.9-2.7,1.7V226.7z"/>
	<path d="M364.7,213.6H364c-0.8-3.1-2.9-5.2-6.1-5.2c-4.6,0-6.6,3.7-6.6,8.8c0,3.9,2.1,8.2,6.7,8.2c2.8,0,4.6-0.9,6.6-2.8l0.5,0.6
		c-1.7,2.1-4.6,3.5-7.3,3.5c-5.5,0-9.7-3.5-9.7-9.7c0-5.6,4-9.7,9.6-9.7c3.9,0,5.3,2.3,6.2,0h0.6L364.7,213.6z"/>
	<path d="M366.2,226.3v-0.5c2.1,0,2.5-0.9,2.5-1.7v-14.1c0-0.8-0.4-1.7-2.5-1.7v-0.5h14.9v4h-0.6c-0.3-1.5-1.2-2.9-3.2-2.9h-4.5
		c-0.7,0-1.2,0.4-1.2,1.1v6h4c1.9,0,3.5-0.5,3.5-2.7h0.6v6.6H379c0-2.2-1.6-2.7-3.5-2.7h-4v6.9c0,0.5,0.2,1.1,0.7,1.1h3.7
		c2.2,0,4.4,0,5.9-3.6h0.8l-1.3,4.8H366.2z"/>
	<path d="M396.1,211.4c0-2.2-0.9-1.8-2.9-1V210l5.3-2.7V224c0,1.2,0.4,1.7,2.7,1.9v0.4h-7.7v-0.4c2.2-0.1,2.7-0.6,2.7-1.9V211.4z"/>
	<path d="M405.7,226.3c1.7-0.3,4.3-1,6.2-3.6c1-1.3,1.9-3,2.3-4.7c-1.4,1-2.8,1.5-4.2,1.5c-3.1,0-5.1-2.2-5.1-5.9
		c0-2.4,1.5-6.4,6-6.4c2.5,0,4.5,1.8,5.3,4c0.7,2,1,4.5,0.4,6.7c-0.8,3-3.3,6.4-6.7,7.9c-1.6,0.7-3.3,1-4.2,1L405.7,226.3z
		 M414.3,214.6c0-2.4-0.5-6.6-3.7-6.6c-2.5,0-3,2.9-3,4.9c0,2.4,0.7,5.5,3.6,5.5c0.9,0,2.5-0.6,3.1-1.4
		C414.3,216.3,414.3,215.5,414.3,214.6z"/>
	<path d="M424.2,211.4c0-2.2-0.9-1.8-2.9-1V210l5.3-2.7V224c0,1.2,0.4,1.7,2.7,1.9v0.4h-7.7v-0.4c2.2-0.1,2.7-0.6,2.7-1.9V211.4z"/>
	<path d="M439.2,207.3c4.2,0,6.4,4.2,6.4,9.8c0,3.9-1.5,9.6-6.5,9.6c-4,0-6.2-4.3-6.2-9.8C432.9,212.9,434.4,207.3,439.2,207.3z
		 M439.3,225.9c3.2,0,3.6-4.5,3.6-8.8c0-5-0.8-9.1-3.5-9.1c-3.1,0-3.8,4.8-3.8,9.4C435.6,221.7,436.2,225.9,439.3,225.9z"/>
</g>
</svg>
