<svg xmlns="http://www.w3.org/2000/svg" viewBox="0 0 520.75 97.33"><defs><style>.cls-1{fill:#231f20;}.cls-2{fill:#4f9d48;}</style></defs><title>certina-logo</title><g id="Sign"><path class="cls-1" d="M457.5,53h10.76c5.35,0,7.45,2.55,7.45,5.67s-2.1,5.67-7.45,5.67H457.5Zm2.41,2.11v7.13h8.33c3.79,0,4.88-1.61,4.88-3.57s-1.09-3.56-4.88-3.56Z"/><path class="cls-1" d="M479.31,62.26h13.08c1.62,0,2-.62,2-1.32s-.34-1.29-2-1.29h-9.31c-3.21,0-4.44-1.44-4.44-3.32S479.87,53,483.08,53h13.13v2.11H483.13c-1.62,0-2,.62-2,1.31s.34,1.3,2,1.3h9.31c3.21,0,4.44,1.44,4.44,3.32s-1.23,3.3-4.44,3.3H479.31Z"/><path class="cls-2" d="M499.91,82.23a.7.7,0,0,0,1.15,0l7.51-10a10.49,10.49,0,0,0,.93-1.59L510.64,68a.56.56,0,0,0-.54-.85h-5.28a2.18,2.18,0,0,0-1.49.73l-6.91,8.69a1.19,1.19,0,0,0,0,1.43Z"/><path class="cls-2" d="M485.05,84.57a1.08,1.08,0,0,0-.39,1.33l2.5,5.43a.76.76,0,0,0,1.15.33L498.22,85a.83.83,0,0,0,.17-1.23l-3.56-4.29a1.07,1.07,0,0,0-1.36-.22Z"/><path class="cls-2" d="M500.59,67.92c.32-.4.17-.73-.34-.73h-9.86c-.5,0-.69.36-.43.79l4.13,6.71a.6.6,0,0,0,1.06.07Z"/><path class="cls-2" d="M483.65,81.94a.54.54,0,0,0,.89.43l7.7-4.89a1,1,0,0,0,.29-1.29l-5-8.18a.58.58,0,0,0-1,0l-3.34,4.54a2.76,2.76,0,0,0-.43,1.67Z"/><path class="cls-2" d="M451,67.92a2.18,2.18,0,0,0-1.49-.73h-5.28a.56.56,0,0,0-.54.85l1.14,2.55a10.49,10.49,0,0,0,.93,1.59l7.51,10a.7.7,0,0,0,1.15,0L457.92,78a1.19,1.19,0,0,0,0-1.43Z"/><path class="cls-2" d="M460.88,79.21a1.09,1.09,0,0,0-1.37.22L456,83.72a.83.83,0,0,0,.17,1.23L466,91.66a.76.76,0,0,0,1.15-.33l2.5-5.43a1.08,1.08,0,0,0-.39-1.33Z"/><path class="cls-2" d="M454.1,67.19c-.51,0-.66.33-.34.73l5.44,6.84a.6.6,0,0,0,1.06-.07L464.38,68c.27-.43.08-.79-.43-.79Z"/><path class="cls-2" d="M469.81,82.37a.54.54,0,0,0,.89-.43l.95-7.76a2.69,2.69,0,0,0-.43-1.67L467.88,68a.58.58,0,0,0-1,0l-5,8.18a.94.94,0,0,0,.29,1.29Z"/><path class="cls-2" d="M479.82,72.2a2.1,2.1,0,0,0,1.47-.74l2.58-3.52c.3-.41.13-.75-.37-.75H470.85c-.5,0-.67.34-.37.75l2.58,3.52a2.08,2.08,0,0,0,1.47.74Z"/><path class="cls-2" d="M474.67,74.34a1.07,1.07,0,0,0-1,.92l-.91,7.4a.8.8,0,0,0,.8.93h7.29a.8.8,0,0,0,.8-.93l-.91-7.4a1.08,1.08,0,0,0-1-.92Z"/><path class="cls-2" d="M473,85.73a1.55,1.55,0,0,0-1.3.84l-2.43,5.27a.54.54,0,0,0,.53.84h14.74a.54.54,0,0,0,.52-.84l-2.42-5.27a1.55,1.55,0,0,0-1.31-.84Z"/><path class="cls-2" d="M491,9.8a8.38,8.38,0,0,1,1.8-.24h3.92a1.38,1.38,0,0,0,1.21-.88L499.47,4c.16-.49-.11-.8-.61-.69L486.78,5.92A1.72,1.72,0,0,0,485.63,7l-1,3.71c-.14.49.14.79.63.65Z"/><path class="cls-2" d="M506.3,19.36a.94.94,0,0,0,1.3.19l3.95-2.92a.85.85,0,0,0,.14-1.25L502.36,4.51c-.33-.38-.74-.3-.89.18l-1.61,4.86a2,2,0,0,0,.27,1.62Z"/><path class="cls-2" d="M516,35.63a.72.72,0,0,0,.72-.91L513.35,19a.56.56,0,0,0-.94-.36l-3.83,2.82a1.51,1.51,0,0,0-.5,1.45l3.09,11.82a1.26,1.26,0,0,0,1.15.9Z"/><path class="cls-2" d="M512.56,37.77a.93.93,0,0,0-.92.93v4.07a10.26,10.26,0,0,1-.2,1.84l-1,4.67a.72.72,0,0,0,.72.91h3.32a1.09,1.09,0,0,0,1-.92l1.36-10.58a.78.78,0,0,0-.79-.92Z"/><path class="cls-2" d="M495.05,47.3a3,3,0,0,0-1.51.85l-1.17,1.34c-.33.39-.19.7.31.7h14.46a1.2,1.2,0,0,0,1.12-.91l.77-3.53a.58.58,0,0,0-.71-.75Z"/><path class="cls-2" d="M492.4,30.2a4.09,4.09,0,0,0-1.32,1.2l-3.42,5.22a1.31,1.31,0,0,0,.09,1.48l5.65,6.51a1.81,1.81,0,0,0,1.51.54l13.73-2.38a1.14,1.14,0,0,0,.9-1.09V37.77a9.35,9.35,0,0,0-.23-1.83L506.2,24a.71.71,0,0,0-1.05-.47Z"/><path class="cls-2" d="M490.7,27.65A1,1,0,0,0,492,28l12.2-6.36a.75.75,0,0,0,.25-1.16l-6.05-8A2.08,2.08,0,0,0,497,11.7h-3.48a1.67,1.67,0,0,0-1.34.82l-4.65,8.82a1.72,1.72,0,0,0,.08,1.59Z"/><path class="cls-2" d="M461.72,9.58a7.89,7.89,0,0,1,1.8.25l5.61,1.54c.48.14.77-.16.63-.65l-1-3.71a1.72,1.72,0,0,0-1.15-1.09L455.49,3.33c-.5-.11-.77.2-.61.69l1.54,4.66a1.38,1.38,0,0,0,1.21.88Z"/><path class="cls-2" d="M452.89,4.69a.48.48,0,0,0-.9-.18l-9.33,10.87a.85.85,0,0,0,.14,1.25l3.95,2.92a.94.94,0,0,0,1.3-.19l6.17-8.19a2,2,0,0,0,.27-1.62Z"/><path class="cls-2" d="M441.94,18.64A.56.56,0,0,0,441,19l-3.32,15.72a.72.72,0,0,0,.72.91H442a1.25,1.25,0,0,0,1.15-.9l3.09-11.82a1.49,1.49,0,0,0-.51-1.45Z"/><path class="cls-2" d="M442.71,38.7a.93.93,0,0,0-.92-.93H438.3a.79.79,0,0,0-.8.92l1.36,10.58a1.08,1.08,0,0,0,1,.92h3.32a.72.72,0,0,0,.72-.91l-1-4.81a10.35,10.35,0,0,1-.19-1.84Z"/><path class="cls-2" d="M446,45a.58.58,0,0,0-.71.75l.77,3.53a1.2,1.2,0,0,0,1.12.91h14.46c.5,0,.64-.31.31-.7l-1.17-1.34a3,3,0,0,0-1.51-.85Z"/><path class="cls-2" d="M449.2,23.56a.71.71,0,0,0-1.05.48l-3.1,11.9a8.66,8.66,0,0,0-.24,1.83v3.91a1.15,1.15,0,0,0,.9,1.09l13.73,2.38a1.82,1.82,0,0,0,1.51-.54l5.64-6.51a1.3,1.3,0,0,0,.1-1.48l-3.42-5.22A4.09,4.09,0,0,0,462,30.2Z"/><path class="cls-2" d="M462.22,12.52a1.7,1.7,0,0,0-1.35-.82h-3.48a2.08,2.08,0,0,0-1.47.74l-6.05,8a.75.75,0,0,0,.26,1.16L462.32,28a1,1,0,0,0,1.33-.34l3.13-4.72a1.75,1.75,0,0,0,.08-1.59Z"/><path class="cls-2" d="M481.11,12.07a1.28,1.28,0,0,0,1.16-.89l1.13-4a.67.67,0,0,0-.67-.9H471.61a.66.66,0,0,0-.66.9l1.13,4a1.29,1.29,0,0,0,1.16.89Z"/><path class="cls-2" d="M484.29,21.16a1.7,1.7,0,0,0,1.35-.82l3.79-7.21c.23-.45,0-.71-.46-.58L483.75,14a8.3,8.3,0,0,1-1.8.24l-9.72,0a8.3,8.3,0,0,1-1.8-.24l-5.05-1.39c-.49-.14-.69.12-.46.57l3.8,7.21a1.68,1.68,0,0,0,1.35.82Z"/><path class="cls-2" d="M485.79,24.07a1.93,1.93,0,0,0-1.43-.77H470a1.93,1.93,0,0,0-1.43.77l-3.29,5a1.51,1.51,0,0,0,0,1.55l3.32,5.07a1.92,1.92,0,0,0,1.42.77h14.35a1.92,1.92,0,0,0,1.42-.77l3.32-5.07a1.56,1.56,0,0,0,0-1.55Z"/><path class="cls-2" d="M486,39.26a2.25,2.25,0,0,0-1.52-.7H469.91a2.3,2.3,0,0,0-1.52.7l-5.64,6.5a1.11,1.11,0,0,0,0,1.4l2,2.33a2.3,2.3,0,0,0,1.52.7H488a2.27,2.27,0,0,0,1.52-.7l2-2.33a1.11,1.11,0,0,0,0-1.4Z"/></g><g id="Claim_VEKT"><path class="cls-1" d="M11.14,74.35a1.61,1.61,0,0,0,1.15,1.28,3.9,3.9,0,0,0,1.24.19c1.64,0,2-.86,2-1.31,0-.93-.77-1.17-1.22-1.29l-2.21-.57A2.6,2.6,0,0,1,9.93,70c0-1.87,1.52-3,3.51-3a4.3,4.3,0,0,1,2.71.86A2.14,2.14,0,0,1,17,69.2l-1.69.43c-.12-.34-.41-1.13-1.82-1.13s-1.71.72-1.71,1.23c0,.77.88,1,1.38,1.19l1.68.41c.84.23,2.57.7,2.57,2.82,0,2-1.68,3.11-3.94,3.11a4.75,4.75,0,0,1-3-.94,3,3,0,0,1-1-1.6Z"/><path class="cls-1" d="M37.14,77.11H35.27l-2-7.28-1.78,7.28H29.67L27,67.21h1.9l1.91,7.23,1.79-7.23h1.79l2,7.23,1.87-7.23h1.57Z"/><path class="cls-1" d="M50,77.11v-9.9h1.79v9.9Z"/><path class="cls-1" d="M63.91,74.35a1.63,1.63,0,0,0,1.16,1.28,3.88,3.88,0,0,0,1.23.19c1.65,0,2-.86,2-1.31,0-.93-.77-1.17-1.22-1.29l-2.21-.57A2.6,2.6,0,0,1,62.71,70c0-1.87,1.51-3,3.5-3a4.33,4.33,0,0,1,2.72.86,2.25,2.25,0,0,1,.83,1.28l-1.69.43c-.12-.34-.42-1.13-1.83-1.13s-1.7.72-1.7,1.23c0,.77.87,1,1.38,1.19l1.67.41c.85.23,2.57.7,2.57,2.82,0,2-1.68,3.11-3.93,3.11a4.78,4.78,0,0,1-3.05-.94,3,3,0,0,1-1-1.6Z"/><path class="cls-1" d="M81.85,74.35A1.61,1.61,0,0,0,83,75.63a3.9,3.9,0,0,0,1.24.19c1.65,0,2-.86,2-1.31,0-.93-.77-1.17-1.22-1.29l-2.21-.57A2.6,2.6,0,0,1,80.64,70c0-1.87,1.52-3,3.51-3a4.3,4.3,0,0,1,2.71.86,2.22,2.22,0,0,1,.84,1.28l-1.7.43c-.11-.34-.41-1.13-1.82-1.13s-1.71.72-1.71,1.23c0,.77.88,1,1.38,1.19l1.68.41c.84.23,2.57.7,2.57,2.82,0,2-1.68,3.11-3.94,3.11a4.77,4.77,0,0,1-3-.94,3,3,0,0,1-1-1.6Z"/><path class="cls-1" d="M121.51,77.11h-1.87l-2-7.28-1.79,7.28H114l-2.7-9.9h1.9l1.92,7.23,1.78-7.23h1.79l2,7.23,1.87-7.23h1.57Z"/><path class="cls-1" d="M141.34,77.11h-1.9l-.8-2.36h-3.8l-.77,2.36h-1.53l3.3-9.9H138Zm-3.17-3.79-1.44-4.42-1.44,4.42Z"/><path class="cls-1" d="M152.33,77.11V68.73h-2.62V67.21h7.17v1.52h-2.63v8.38Z"/><path class="cls-1" d="M174,73.86a3.6,3.6,0,0,1-3.75,3.4c-3.33,0-4-3.4-4-5.11,0-2.57,1.19-5.09,4-5.09,2.1,0,3.34,1.33,3.69,3.5l-1.66.18c-.18-.79-.52-2.24-2-2.24-2,0-2.11,2.72-2.11,3.61,0,2.83,1.13,3.65,2.17,3.65a2.09,2.09,0,0,0,2-2.1Z"/><path class="cls-1" d="M192.28,77.11H190.5V72.82h-3.78v4.29h-1.78v-9.9h1.78v4.08h3.78V67.21h1.78Z"/><path class="cls-1" d="M203.14,77.11v-9.9h6.37v1.47h-4.59v2.68h3.68V72.8h-3.68v2.78h4.65v1.53Z"/><path class="cls-1" d="M221,74.35a1.63,1.63,0,0,0,1.16,1.28,3.88,3.88,0,0,0,1.23.19c1.65,0,2-.86,2-1.31,0-.93-.77-1.17-1.22-1.29L222,72.65A2.6,2.6,0,0,1,219.84,70c0-1.87,1.51-3,3.5-3a4.33,4.33,0,0,1,2.72.86,2.25,2.25,0,0,1,.83,1.28l-1.69.43c-.12-.34-.42-1.13-1.83-1.13s-1.7.72-1.7,1.23c0,.77.87,1,1.38,1.19l1.68.41a2.86,2.86,0,0,1,2.56,2.82c0,2-1.67,3.11-3.93,3.11a4.78,4.78,0,0,1-3.05-.94,3,3,0,0,1-1-1.6Z"/><path class="cls-1" d="M251.86,74.35A1.61,1.61,0,0,0,253,75.63a3.84,3.84,0,0,0,1.23.19c1.65,0,2-.86,2-1.31,0-.93-.77-1.17-1.22-1.29l-2.21-.57A2.6,2.6,0,0,1,250.65,70c0-1.87,1.52-3,3.51-3a4.35,4.35,0,0,1,2.72.86,2.25,2.25,0,0,1,.83,1.28l-1.7.43c-.11-.34-.41-1.13-1.82-1.13s-1.71.72-1.71,1.23c0,.77.88,1,1.38,1.19l1.68.41c.85.23,2.57.7,2.57,2.82,0,2-1.68,3.11-3.94,3.11a4.77,4.77,0,0,1-3-.94,2.88,2.88,0,0,1-1-1.6Z"/><path class="cls-1" d="M268.67,77.11v-9.9h1.78v9.9Z"/><path class="cls-1" d="M288.65,77.11H287l-3.87-6.33c-.11-.16-.46-.92-.55-1.09v7.42h-1.43v-9.9h2L286.62,73c0,.08.27.51.61,1.16v-7h1.42Z"/><path class="cls-1" d="M307.07,73.86a3.61,3.61,0,0,1-3.76,3.4c-3.33,0-4-3.4-4-5.11,0-2.57,1.18-5.09,4-5.09,2.11,0,3.34,1.33,3.7,3.5l-1.67.18c-.17-.79-.52-2.24-2-2.24-2,0-2.11,2.72-2.11,3.61,0,2.83,1.13,3.65,2.16,3.65a2.08,2.08,0,0,0,2-2.1Z"/><path class="cls-1" d="M317.57,77.11v-9.9h6.37v1.47h-4.59v2.68H323V72.8h-3.69v2.78H324v1.53Z"/><path class="cls-1" d="M350.06,67a3.27,3.27,0,0,1-.8.94,5.78,5.78,0,0,1-2.51,1.45v1.79a9.33,9.33,0,0,0,2.71-1.79v7.72h1.79V67Z"/><path class="cls-1" d="M364.32,69.75c0-1.5,1.19-2.79,3.62-2.79,2.2,0,3.5,1.05,3.5,2.57a2.34,2.34,0,0,1-1.75,2.15,2.93,2.93,0,0,1,2.14,2.6c0,1.48-1.28,2.88-4,2.88-2.44,0-3.85-1.09-3.85-2.66s1.43-2.12,2.09-2.37A2.64,2.64,0,0,1,364.32,69.75Zm1.35,4.66c0,.65.65,1.46,2.24,1.46s2.09-.66,2.09-1.32c0-.87-.83-1.24-2.71-1.85C366,73.18,365.67,73.89,365.67,74.41Zm4.16-4.84c0-1.07-1.18-1.38-1.88-1.38-.47,0-1.84.16-1.84,1.28,0,.83.73,1.17,2.35,1.69C369,70.92,369.83,70.54,369.83,69.57Z"/><path class="cls-1" d="M382.86,69.75c0-1.5,1.19-2.79,3.63-2.79,2.19,0,3.5,1.05,3.5,2.57a2.34,2.34,0,0,1-1.75,2.15,2.93,2.93,0,0,1,2.14,2.6c0,1.48-1.28,2.88-4,2.88-2.43,0-3.84-1.09-3.84-2.66s1.42-2.12,2.09-2.37A2.64,2.64,0,0,1,382.86,69.75Zm1.35,4.66c0,.65.66,1.46,2.25,1.46s2.09-.66,2.09-1.32c0-.87-.83-1.24-2.72-1.85C384.59,73.18,384.21,73.89,384.21,74.41Zm4.16-4.84c0-1.07-1.17-1.38-1.87-1.38-.47,0-1.84.16-1.84,1.28,0,.83.73,1.17,2.35,1.69C387.52,70.92,388.37,70.54,388.37,69.57Z"/><path class="cls-1" d="M401.41,69.75c0-1.5,1.19-2.79,3.62-2.79,2.2,0,3.51,1.05,3.51,2.57a2.35,2.35,0,0,1-1.76,2.15,2.93,2.93,0,0,1,2.14,2.6c0,1.48-1.28,2.88-4,2.88-2.44,0-3.85-1.09-3.85-2.66s1.43-2.12,2.1-2.37A2.64,2.64,0,0,1,401.41,69.75Zm1.35,4.66c0,.65.65,1.46,2.24,1.46s2.1-.66,2.1-1.32c0-.87-.84-1.24-2.72-1.85C403.13,73.18,402.76,73.89,402.76,74.41Zm4.16-4.84c0-1.07-1.18-1.38-1.87-1.38-.48,0-1.84.16-1.84,1.28,0,.83.72,1.17,2.34,1.69C406.07,70.92,406.92,70.54,406.92,69.57Z"/></g><g id="Certina"><rect class="cls-1" x="264.84" y="6.26" width="9.82" height="43.94"/><polygon class="cls-1" points="331.85 6.26 331.86 39.66 298.63 6.26 298.56 6.26 286.72 6.26 286.72 50.2 296.05 50.2 296.05 16.7 329.63 50.2 329.71 50.2 341.17 50.2 341.17 6.26 331.85 6.26"/><polygon class="cls-1" points="199.61 6.26 199.61 15.09 222.93 15.09 222.93 50.2 232.75 50.2 232.75 15.09 256.07 15.09 256.07 6.26 199.61 6.26"/><polygon class="cls-1" points="123.95 15.1 123.95 6.26 72.05 6.26 72.05 50.2 123.95 50.2 123.95 41.37 81.39 41.37 81.39 32.64 122.43 32.64 122.43 23.8 81.39 23.8 81.39 15.1 123.95 15.1"/><path class="cls-1" d="M180.7,32.36c8.51-1.06,13-5.39,13-12.55,0-11.2-9.16-13.55-16.84-13.55h-41V50.2h9.32V32.63h23.51L185.22,50.2h12.31ZM145.2,15.09h31.44c5.43,0,7.74,1.31,7.74,4.37,0,2-.83,4.34-7.31,4.34H145.2Z"/><path class="cls-1" d="M27.06,15.08h33V6.26H26.65C9.72,6.26,0,14.26,0,28.23c0,14.78,9.3,22,28.43,22H60.1V41.35H27.34c-12.28,0-18-4.19-18-13.19S15,15.08,27.06,15.08Z"/><path class="cls-1" d="M408.89,50.2h11.57l-32-43.94H378.9L346.82,50.2H358.4l6.33-8.83h37.82ZM383.64,15,396,32.16l.35.48H371l.35-.48Z"/></g></svg>
